#!OML:ASF E:\Style4\Style4.ASF
:FULLY-SPECIFIED
:DEGREES
1524
root -0.40247 17.0673 -1.13555 -1.19491 1.9164 3.65057
lowerback 12.1628 2.21371 -1.36937
upperback 7.08463 2.79237 -0.182121
thorax 0.542587 1.36657 0.260972
lowerneck -1.39369 -5.70931 -5.10285
upperneck 9.87523 -7.73594 3.68954
head 3.87028 -3.86454 1.81314
rclavicle -2.5842e-015 3.97569e-016
rhumerus 57.4186 -15.9614 -13.4545
rradius 56.8765
rwrist -22.5598
rhand 9.00946 10.0837
rfingers 7.12502
rthumb 34.1863 -16.6585
lclavicle -2.5842e-015 3.97569e-016
lhumerus 60.3866 17.0246 15.2572
lradius 72.6827
lwrist 24.7059
lhand 9.15347 24.7622
lfingers 7.12502
lthumb 34.323 51.4737
rfemur -22.8989 -6.24643 16.8175
rtibia 50.4024
rfoot -24.3691 -16.8968
rtoes -11.5846
lfemur -21.2658 0.451336 -20.2876
ltibia 45.8289
lfoot -22.1718 7.60491
ltoes -18.7567
1525
root -0.400392 17.0759 -1.12747 -1.21675 1.88827 3.6509
lowerback 12.1136 2.21441 -1.37658
upperback 7.08438 2.79362 -0.16973
thorax 0.567745 1.36661 0.279622
lowerneck -1.50862 -5.75008 -5.18898
upperneck 9.90328 -7.78702 3.73589
head 3.91263 -3.89004 1.8382
rclavicle -1.11319e-014 -7.15625e-015
rhumerus 57.0536 -15.5745 -13.0046
rradius 57.0794
rwrist -22.5086
rhand 9.16501 10.2912
rfingers 7.12502
rthumb 34.334 -16.4179
lclavicle -1.11319e-014 -7.15625e-015
lhumerus 60.0689 16.6213 14.5368
lradius 72.5206
lwrist 24.3093
lhand 9.89612 24.5126
lfingers 7.12502
lthumb 35.0278 51.0622
rfemur -22.7376 -6.16408 16.8081
rtibia 50.2153
rfoot -24.336 -16.8688
rtoes -11.0841
lfemur -21.0889 0.399967 -20.2919
ltibia 45.6225
lfoot -22.1943 7.53471
ltoes -18.1024
1526
root -0.399441 17.086 -1.11786 -1.21717 1.86352 3.55074
lowerback 12.0391 2.20486 -1.32222
upperback 7.05418 2.78784 -0.122866
thorax 0.576182 1.36436 0.300574
lowerneck -1.46437 -5.75203 -5.21877
upperneck 9.88424 -7.79149 3.75312
head 3.90019 -3.89327 1.85043
rclavicle -4.37326e-015 2.38542e-015
rhumerus 56.8394 -15.1833 -12.6362
rradius 57.2166
rwrist -22.4877
rhand 9.29826 10.2824
rfingers 7.12502
rthumb 34.4605 -16.3979
lclavicle -4.37326e-015 2.38542e-015
lhumerus 59.6737 16.2044 13.7842
lradius 72.4312
lwrist 24.2176
lhand 10.2513 24.4297
lfingers 7.12502
lthumb 35.3646 50.8998
rfemur -22.5765 -6.08155 16.9178
rtibia 49.9701
rfoot -24.309 -16.8761
rtoes -10.8309
lfemur -20.9166 0.331692 -20.174
ltibia 45.3854
lfoot -22.2194 7.391
ltoes -17.146
1527
root -0.398597 17.1011 -1.10882 -1.1972 1.8603 3.51502
lowerback 11.9618 2.20537 -1.30784
upperback 7.03382 2.79136 -0.103221
thorax 0.59591 1.36612 0.314999
lowerneck -1.43976 -5.76292 -5.22871
upperneck 9.8487 -7.80759 3.77028
head 3.88522 -3.90128 1.85813
rclavicle 2.40529e-014 -6.36111e-015
rhumerus 56.6293 -14.9442 -12.3915
rradius 57.2893
rwrist -22.401
rhand 9.41838 10.4522
rfingers 7.12502
rthumb 34.5745 -16.2021
lclavicle 2.40529e-014 -6.36111e-015
lhumerus 59.2712 15.8554 12.978
lradius 72.4358
lwrist 24.2551
lhand 10.491 24.2926
lfingers 7.12502
lthumb 35.5919 50.7083
rfemur -22.4003 -6.04261 16.9534
rtibia 49.6688
rfoot -24.2613 -16.8732
rtoes -10.9052
lfemur -20.7497 0.285395 -20.1413
ltibia 45.0987
lfoot -22.0851 7.46037
ltoes -17.1922
1528
root -0.395691 17.1221 -1.10029 -1.10429 1.86745 3.48421
lowerback 11.8339 2.182 -1.25467
upperback 6.99289 2.76765 -0.112596
thorax 0.624897 1.35593 0.28228
lowerneck -1.4983 -5.75185 -5.2192
upperneck 9.89246 -7.79195 3.77054
head 3.91072 -3.8926 1.85538
rclavicle -3.97569e-014 1.55052e-014
rhumerus 56.4717 -14.7902 -12.2594
rradius 57.4173
rwrist -22.3953
rhand 9.45806 10.5131
rfingers 7.12502
rthumb 34.6121 -16.1326
lclavicle -3.97569e-014 1.55052e-014
lhumerus 58.8553 15.5886 12.2106
lradius 72.4464
lwrist 24.2724
lhand 10.6882 24.3254
lfingers 7.12502
lthumb 35.7788 50.696
rfemur -22.2626 -6.01959 16.982
rtibia 49.3063
rfoot -24.1662 -16.8797
rtoes -10.8628
lfemur -20.6459 0.244965 -20.1373
ltibia 44.7621
lfoot -21.8602 7.71857
ltoes -18.2225
1529
root -0.392678 17.144 -1.09149 -0.995778 1.86263 3.51922
lowerback 11.7058 2.17245 -1.28925
upperback 6.92879 2.75337 -0.124032
thorax 0.625831 1.34812 0.294818
lowerneck -1.42944 -5.72648 -5.19738
upperneck 9.86394 -7.7584 3.73977
head 3.88247 -3.8772 1.84484
rclavicle -3.47873e-014 1.23246e-014
rhumerus 56.3023 -14.6847 -12.0444
rradius 57.6454
rwrist -22.5733
rhand 9.43825 10.3757
rfingers 7.12502
rthumb 34.5934 -16.2743
lclavicle -3.47873e-014 1.23246e-014
lhumerus 58.4424 15.3631 11.5363
lradius 72.5115
lwrist 24.3024
lhand 10.8306 24.5422
lfingers 7.12502
lthumb 35.9138 50.8798
rfemur -22.1137 -6.03358 16.941
rtibia 48.8989
rfoot -24.0105 -16.8681
rtoes -10.9155
lfemur -20.5036 0.225391 -20.1988
ltibia 44.369
lfoot -21.7565 7.85561
ltoes -18.6149
1530
root -0.392452 17.1679 -1.0825 -0.884457 1.85109 3.48752
lowerback 11.5884 2.17484 -1.27043
upperback 6.8542 2.75978 -0.114094
thorax 0.611061 1.35189 0.296622
lowerneck -1.40582 -5.7155 -5.18498
upperneck 9.94693 -7.74071 3.67163
head 3.9019 -3.87073 1.82052
rclavicle -2.28602e-014 -2.78299e-015
rhumerus 56.1157 -14.6423 -11.8806
rradius 57.8613
rwrist -22.6932
rhand 9.31106 10.4162
rfingers 7.12502
rthumb 34.4726 -16.2614
lclavicle -2.28602e-014 -2.78299e-015
lhumerus 58.2848 15.1961 11.2845
lradius 72.6301
lwrist 24.1785
lhand 11.2717 24.9338
lfingers 7.12502
lthumb 36.3315 51.1682
rfemur -21.9418 -5.9952 16.9865
rtibia 48.4457
rfoot -23.8693 -16.8955
rtoes -10.9983
lfemur -20.3471 0.209828 -20.1655
ltibia 43.9295
lfoot -21.6128 7.84109
ltoes -18.2898
1531
root -0.391205 17.1935 -1.07296 -0.783335 1.87246 3.39251
lowerback 11.5025 2.15963 -1.15688
upperback 6.77965 2.7514 -0.0962425
thorax 0.583455 1.35084 0.254042
lowerneck -1.51924 -5.70361 -5.15411
upperneck 10.1839 -7.71839 3.58394
head 4.00046 -3.86053 1.78166
rclavicle -1.88845e-014 6.36111e-015
rhumerus 55.9636 -14.6965 -11.7894
rradius 58.025
rwrist -22.7965
rhand 9.17327 10.4134
rfingers 7.12502
rthumb 34.3418 -16.2938
lclavicle -1.88845e-014 6.36111e-015
lhumerus 58.2289 15.0671 11.2584
lradius 72.6151
lwrist 23.8938
lhand 11.6678 24.9381
lfingers 7.12502
lthumb 36.7064 51.0778
rfemur -21.7371 -5.99069 17.087
rtibia 47.9571
rfoot -23.7279 -16.9014
rtoes -10.7774
lfemur -20.1625 0.142274 -20.0637
ltibia 43.4536
lfoot -21.4016 7.83884
ltoes -18.0822
1532
root -0.389143 17.2201 -1.06234 -0.660483 1.85779 3.42267
lowerback 11.3723 2.15654 -1.18056
upperback 6.72471 2.74669 -0.11389
thorax 0.596031 1.34818 0.253298
lowerneck -1.57857 -5.68722 -5.15125
upperneck 10.3054 -7.69587 3.57363
head 4.05354 -3.84904 1.77627
rclavicle -2.78299e-014 1.15295e-014
rhumerus 55.8005 -14.8651 -11.6269
rradius 58.2285
rwrist -23.0823
rhand 9.06585 10.374
rfingers 7.12502
rthumb 34.2398 -16.3562
lclavicle -2.78299e-014 1.15295e-014
lhumerus 58.1652 15.0276 11.2046
lradius 72.4762
lwrist 23.7335
lhand 11.7883 24.8887
lfingers 7.12502
lthumb 36.8205 50.9994
rfemur -21.5568 -5.98667 17.0482
rtibia 47.4521
rfoot -23.4608 -16.9524
rtoes -10.8155
lfemur -19.9646 0.126666 -20.1038
ltibia 42.9484
lfoot -21.2138 7.93082
ltoes -18.4772
1533
root -0.386696 17.2469 -1.05396 -0.55009 1.84452 3.41941
lowerback 11.3134 2.1359 -1.18608
upperback 6.65148 2.71916 -0.107661
thorax 0.550923 1.33441 0.266273
lowerneck -1.5706 -5.6653 -5.18325
upperneck 10.3599 -7.66609 3.56917
head 4.07145 -3.83588 1.78174
rclavicle 2.22639e-014 5.56597e-015
rhumerus 55.827 -15.0755 -11.5538
rradius 58.298
rwrist -23.4327
rhand 9.00378 10.3869
rfingers 7.12502
rthumb 34.1809 -16.3565
lclavicle 2.22639e-014 5.56597e-015
lhumerus 58.0848 15.0644 11.1717
lradius 72.35
lwrist 23.7051
lhand 11.8524 24.9736
lfingers 7.12502
lthumb 36.8811 51.0687
rfemur -21.3494 -5.92677 17.0455
rtibia 46.9215
rfoot -23.3255 -16.8403
rtoes -10.3989
lfemur -19.7559 0.110458 -20.1113
ltibia 42.4135
lfoot -21.0414 7.9676
ltoes -18.581
1534
root -0.385426 17.275 -1.047 -0.407848 1.84311 3.3519
lowerback 11.2398 2.12304 -1.12909
upperback 6.5777 2.70818 -0.0720819
thorax 0.514289 1.33007 0.273387
lowerneck -1.66092 -5.66349 -5.25699
upperneck 10.5046 -7.65698 3.54675
head 4.14339 -3.83417 1.78419
rclavicle 1.76918e-014 2.78299e-015
rhumerus 55.8691 -15.3485 -11.5278
rradius 58.3553
rwrist -23.7422
rhand 8.87124 10.4134
rfingers 7.12502
rthumb 34.055 -16.3582
lclavicle 1.76918e-014 2.78299e-015
lhumerus 58.0256 15.1933 11.1976
lradius 72.2939
lwrist 23.8676
lhand 11.8166 25.0258
lfingers 7.12502
lthumb 36.8472 51.1296
rfemur -21.1827 -5.87233 17.1268
rtibia 46.377
rfoot -23.2031 -16.7448
rtoes -10.0807
lfemur -19.5845 0.0984703 -20.0399
ltibia 41.8492
lfoot -20.8067 7.91236
ltoes -18.281
1535
root -0.384529 17.3065 -1.03632 -0.251126 1.82164 3.3509
lowerback 11.105 2.11689 -1.144
upperback 6.50484 2.7002 -0.0708023
thorax 0.510264 1.32577 0.287311
lowerneck -1.79752 -5.63192 -5.30843
upperneck 10.6609 -7.61382 3.58847
head 4.22936 -3.8119 1.80501
rclavicle -3.63776e-014 2.98177e-014
rhumerus 55.9015 -15.6523 -11.5952
rradius 58.4772
rwrist -23.9445
rhand 8.66872 10.3387
rfingers 7.12502
rthumb 33.8626 -16.4755
lclavicle -3.63776e-014 2.98177e-014
lhumerus 57.9737 15.3829 11.1775
lradius 72.3156
lwrist 24.1152
lhand 11.6597 25.1364
lfingers 7.12502
lthumb 36.6988 51.2781
rfemur -20.9996 -5.81103 17.1364
rtibia 45.7939
rfoot -22.9132 -16.8157
rtoes -10.1271
lfemur -19.3793 0.157979 -20.0409
ltibia 41.2542
lfoot -20.5798 7.86627
ltoes -18.0483
